<mxfile host="Electron" agent="Mozilla/5.0 (Windows NT 10.0; Win64; x64) AppleWebKit/537.36 (KHTML, like Gecko) draw.io/24.7.17 Chrome/128.0.6613.36 Electron/32.0.1 Safari/537.36" version="24.7.17">
  <diagram name="Page-1" id="358yn2RzVwLBnBKq4zSw">
    <mxGraphModel dx="2074" dy="1204" grid="1" gridSize="10" guides="1" tooltips="1" connect="1" arrows="1" fold="1" page="1" pageScale="1" pageWidth="900" pageHeight="1600" math="0" shadow="0">
      <root>
        <mxCell id="0" />
        <mxCell id="1" parent="0" />
        <mxCell id="w7cFsFUDr6lKlFR0li6j-1" value="stop" style="strokeWidth=2;html=1;shape=mxgraph.flowchart.start_1;whiteSpace=wrap;" vertex="1" parent="1">
          <mxGeometry x="390" y="2240" width="100" height="60" as="geometry" />
        </mxCell>
        <mxCell id="w7cFsFUDr6lKlFR0li6j-28" style="edgeStyle=orthogonalEdgeStyle;rounded=0;orthogonalLoop=1;jettySize=auto;html=1;exitX=0.5;exitY=1;exitDx=0;exitDy=0;exitPerimeter=0;" edge="1" parent="1" source="w7cFsFUDr6lKlFR0li6j-2" target="w7cFsFUDr6lKlFR0li6j-10">
          <mxGeometry relative="1" as="geometry" />
        </mxCell>
        <mxCell id="w7cFsFUDr6lKlFR0li6j-2" value="start" style="strokeWidth=2;html=1;shape=mxgraph.flowchart.start_1;whiteSpace=wrap;" vertex="1" parent="1">
          <mxGeometry x="390" y="10" width="100" height="60" as="geometry" />
        </mxCell>
        <mxCell id="w7cFsFUDr6lKlFR0li6j-10" value="set row_1 = 200&lt;div&gt;set row_2 = 400&lt;br&gt;&lt;/div&gt;&lt;div&gt;set row_3 = 600&lt;br&gt;&lt;/div&gt;&lt;div&gt;set row_4 = 800&lt;br&gt;&lt;/div&gt;&lt;div&gt;set row_5 = 1000&lt;br&gt;&lt;/div&gt;&lt;div&gt;&lt;br&gt;set timeToanswer&lt;div&gt;= 5&lt;/div&gt;&lt;/div&gt;&lt;div&gt;&lt;br&gt;set numberOfQuestions&lt;div&gt;= 0&lt;/div&gt;&lt;/div&gt;" style="rounded=1;whiteSpace=wrap;html=1;absoluteArcSize=1;arcSize=14;strokeWidth=2;" vertex="1" parent="1">
          <mxGeometry x="360" y="90" width="160" height="200" as="geometry" />
        </mxCell>
        <mxCell id="w7cFsFUDr6lKlFR0li6j-51" style="edgeStyle=orthogonalEdgeStyle;rounded=0;orthogonalLoop=1;jettySize=auto;html=1;exitX=0.5;exitY=1;exitDx=0;exitDy=0;entryX=0.5;entryY=0;entryDx=0;entryDy=0;" edge="1" parent="1" source="w7cFsFUDr6lKlFR0li6j-26" target="w7cFsFUDr6lKlFR0li6j-46">
          <mxGeometry relative="1" as="geometry" />
        </mxCell>
        <mxCell id="w7cFsFUDr6lKlFR0li6j-26" value="output&lt;div&gt;&quot;Please choose a category.&lt;/div&gt;&lt;div&gt;You have 5 seconds to answer.&lt;/div&gt;" style="shape=parallelogram;html=1;strokeWidth=2;perimeter=parallelogramPerimeter;whiteSpace=wrap;rounded=1;arcSize=12;size=0.23;" vertex="1" parent="1">
          <mxGeometry x="330" y="310" width="220" height="119" as="geometry" />
        </mxCell>
        <mxCell id="w7cFsFUDr6lKlFR0li6j-29" style="edgeStyle=orthogonalEdgeStyle;rounded=0;orthogonalLoop=1;jettySize=auto;html=1;exitX=0.5;exitY=1;exitDx=0;exitDy=0;entryX=0.545;entryY=0.017;entryDx=0;entryDy=0;entryPerimeter=0;" edge="1" parent="1" source="w7cFsFUDr6lKlFR0li6j-10" target="w7cFsFUDr6lKlFR0li6j-26">
          <mxGeometry relative="1" as="geometry" />
        </mxCell>
        <mxCell id="w7cFsFUDr6lKlFR0li6j-52" style="edgeStyle=orthogonalEdgeStyle;rounded=0;orthogonalLoop=1;jettySize=auto;html=1;exitX=0;exitY=0.5;exitDx=0;exitDy=0;exitPerimeter=0;" edge="1" parent="1" source="w7cFsFUDr6lKlFR0li6j-30" target="w7cFsFUDr6lKlFR0li6j-26">
          <mxGeometry relative="1" as="geometry">
            <mxPoint x="270" y="380" as="targetPoint" />
            <Array as="points">
              <mxPoint x="270" y="635" />
              <mxPoint x="270" y="370" />
            </Array>
          </mxGeometry>
        </mxCell>
        <mxCell id="w7cFsFUDr6lKlFR0li6j-53" value="Yes" style="edgeLabel;html=1;align=center;verticalAlign=middle;resizable=0;points=[];" vertex="1" connectable="0" parent="w7cFsFUDr6lKlFR0li6j-52">
          <mxGeometry x="-0.0383" y="-1" relative="1" as="geometry">
            <mxPoint as="offset" />
          </mxGeometry>
        </mxCell>
        <mxCell id="w7cFsFUDr6lKlFR0li6j-30" value="timeAnswered &amp;gt;= timeToanswer" style="strokeWidth=2;html=1;shape=mxgraph.flowchart.decision;whiteSpace=wrap;" vertex="1" parent="1">
          <mxGeometry x="340" y="560" width="200" height="150" as="geometry" />
        </mxCell>
        <mxCell id="w7cFsFUDr6lKlFR0li6j-46" value="&lt;div&gt;input&lt;/div&gt;playerAnswer" style="shape=parallelogram;html=1;strokeWidth=2;perimeter=parallelogramPerimeter;whiteSpace=wrap;rounded=1;arcSize=12;size=0.23;" vertex="1" parent="1">
          <mxGeometry x="375" y="450" width="130" height="80" as="geometry" />
        </mxCell>
        <mxCell id="w7cFsFUDr6lKlFR0li6j-50" style="edgeStyle=orthogonalEdgeStyle;rounded=0;orthogonalLoop=1;jettySize=auto;html=1;exitX=0.5;exitY=1;exitDx=0;exitDy=0;entryX=0.5;entryY=0;entryDx=0;entryDy=0;entryPerimeter=0;" edge="1" parent="1" source="w7cFsFUDr6lKlFR0li6j-46" target="w7cFsFUDr6lKlFR0li6j-30">
          <mxGeometry relative="1" as="geometry" />
        </mxCell>
        <mxCell id="w7cFsFUDr6lKlFR0li6j-81" style="edgeStyle=orthogonalEdgeStyle;rounded=0;orthogonalLoop=1;jettySize=auto;html=1;exitX=0.5;exitY=1;exitDx=0;exitDy=0;exitPerimeter=0;" edge="1" parent="1" source="w7cFsFUDr6lKlFR0li6j-58" target="w7cFsFUDr6lKlFR0li6j-79">
          <mxGeometry relative="1" as="geometry" />
        </mxCell>
        <mxCell id="w7cFsFUDr6lKlFR0li6j-83" value="Yes" style="edgeLabel;html=1;align=center;verticalAlign=middle;resizable=0;points=[];" vertex="1" connectable="0" parent="w7cFsFUDr6lKlFR0li6j-81">
          <mxGeometry x="-0.0435" y="4" relative="1" as="geometry">
            <mxPoint as="offset" />
          </mxGeometry>
        </mxCell>
        <mxCell id="w7cFsFUDr6lKlFR0li6j-58" value="playerAnswer ==&amp;nbsp;&lt;div&gt;correctAnswer&lt;/div&gt;" style="strokeWidth=2;html=1;shape=mxgraph.flowchart.decision;whiteSpace=wrap;" vertex="1" parent="1">
          <mxGeometry x="355" y="740" width="170" height="170" as="geometry" />
        </mxCell>
        <mxCell id="w7cFsFUDr6lKlFR0li6j-63" style="edgeStyle=orthogonalEdgeStyle;rounded=0;orthogonalLoop=1;jettySize=auto;html=1;exitX=0.5;exitY=1;exitDx=0;exitDy=0;exitPerimeter=0;entryX=0.5;entryY=0;entryDx=0;entryDy=0;entryPerimeter=0;" edge="1" parent="1" source="w7cFsFUDr6lKlFR0li6j-30" target="w7cFsFUDr6lKlFR0li6j-58">
          <mxGeometry relative="1" as="geometry" />
        </mxCell>
        <mxCell id="w7cFsFUDr6lKlFR0li6j-64" value="No" style="edgeLabel;html=1;align=center;verticalAlign=middle;resizable=0;points=[];" vertex="1" connectable="0" parent="w7cFsFUDr6lKlFR0li6j-63">
          <mxGeometry x="-0.9389" y="-3" relative="1" as="geometry">
            <mxPoint as="offset" />
          </mxGeometry>
        </mxCell>
        <mxCell id="w7cFsFUDr6lKlFR0li6j-76" style="edgeStyle=orthogonalEdgeStyle;rounded=0;orthogonalLoop=1;jettySize=auto;html=1;exitX=0.5;exitY=0;exitDx=0;exitDy=0;" edge="1" parent="1" source="w7cFsFUDr6lKlFR0li6j-72" target="w7cFsFUDr6lKlFR0li6j-26">
          <mxGeometry relative="1" as="geometry">
            <mxPoint x="640" y="360" as="targetPoint" />
            <Array as="points">
              <mxPoint x="640" y="370" />
            </Array>
          </mxGeometry>
        </mxCell>
        <mxCell id="w7cFsFUDr6lKlFR0li6j-72" value="output&lt;div&gt;&lt;/div&gt;&lt;div&gt;&quot;I&#39;m sorry that&#39;s the&lt;/div&gt;&lt;div&gt;wrong answer&lt;/div&gt;" style="shape=parallelogram;html=1;strokeWidth=2;perimeter=parallelogramPerimeter;whiteSpace=wrap;rounded=1;arcSize=12;size=0.23;" vertex="1" parent="1">
          <mxGeometry x="570" y="770" width="140" height="85" as="geometry" />
        </mxCell>
        <mxCell id="w7cFsFUDr6lKlFR0li6j-74" style="edgeStyle=orthogonalEdgeStyle;rounded=0;orthogonalLoop=1;jettySize=auto;html=1;exitX=1;exitY=0.5;exitDx=0;exitDy=0;exitPerimeter=0;entryX=0.071;entryY=0.647;entryDx=0;entryDy=0;entryPerimeter=0;" edge="1" parent="1" source="w7cFsFUDr6lKlFR0li6j-58" target="w7cFsFUDr6lKlFR0li6j-72">
          <mxGeometry relative="1" as="geometry" />
        </mxCell>
        <mxCell id="w7cFsFUDr6lKlFR0li6j-75" value="No" style="edgeLabel;html=1;align=center;verticalAlign=middle;resizable=0;points=[];" vertex="1" connectable="0" parent="w7cFsFUDr6lKlFR0li6j-74">
          <mxGeometry x="-0.1627" y="-1" relative="1" as="geometry">
            <mxPoint as="offset" />
          </mxGeometry>
        </mxCell>
        <mxCell id="w7cFsFUDr6lKlFR0li6j-123" style="edgeStyle=orthogonalEdgeStyle;rounded=0;orthogonalLoop=1;jettySize=auto;html=1;exitX=0.5;exitY=1;exitDx=0;exitDy=0;exitPerimeter=0;" edge="1" parent="1" source="w7cFsFUDr6lKlFR0li6j-79" target="w7cFsFUDr6lKlFR0li6j-85">
          <mxGeometry relative="1" as="geometry" />
        </mxCell>
        <mxCell id="w7cFsFUDr6lKlFR0li6j-124" value="No" style="edgeLabel;html=1;align=center;verticalAlign=middle;resizable=0;points=[];" vertex="1" connectable="0" parent="w7cFsFUDr6lKlFR0li6j-123">
          <mxGeometry x="-0.0857" y="-2" relative="1" as="geometry">
            <mxPoint as="offset" />
          </mxGeometry>
        </mxCell>
        <mxCell id="w7cFsFUDr6lKlFR0li6j-79" value="correctAnswer in row_1" style="strokeWidth=2;html=1;shape=mxgraph.flowchart.decision;whiteSpace=wrap;" vertex="1" parent="1">
          <mxGeometry x="380" y="960" width="120" height="110" as="geometry" />
        </mxCell>
        <mxCell id="w7cFsFUDr6lKlFR0li6j-137" style="edgeStyle=orthogonalEdgeStyle;rounded=0;orthogonalLoop=1;jettySize=auto;html=1;exitX=0;exitY=0.5;exitDx=0;exitDy=0;entryX=0.025;entryY=0.58;entryDx=0;entryDy=0;entryPerimeter=0;" edge="1" parent="1" source="w7cFsFUDr6lKlFR0li6j-80" target="w7cFsFUDr6lKlFR0li6j-129">
          <mxGeometry relative="1" as="geometry">
            <mxPoint x="30" y="1830" as="targetPoint" />
            <Array as="points">
              <mxPoint x="20" y="1025" />
              <mxPoint x="20" y="1830" />
              <mxPoint x="364" y="1830" />
            </Array>
          </mxGeometry>
        </mxCell>
        <mxCell id="w7cFsFUDr6lKlFR0li6j-80" value="output&lt;div&gt;&quot;You answered&amp;nbsp;&lt;/div&gt;&lt;div&gt;correctly that&#39;s $200.&quot;&lt;br&gt;&lt;/div&gt;" style="shape=parallelogram;html=1;strokeWidth=2;perimeter=parallelogramPerimeter;whiteSpace=wrap;rounded=1;arcSize=12;size=0.23;" vertex="1" parent="1">
          <mxGeometry x="130" y="965" width="210" height="120" as="geometry" />
        </mxCell>
        <mxCell id="w7cFsFUDr6lKlFR0li6j-127" style="edgeStyle=orthogonalEdgeStyle;rounded=0;orthogonalLoop=1;jettySize=auto;html=1;exitX=0;exitY=0.5;exitDx=0;exitDy=0;exitPerimeter=0;" edge="1" parent="1" source="w7cFsFUDr6lKlFR0li6j-85" target="w7cFsFUDr6lKlFR0li6j-91">
          <mxGeometry relative="1" as="geometry" />
        </mxCell>
        <mxCell id="w7cFsFUDr6lKlFR0li6j-128" value="Yes" style="edgeLabel;html=1;align=center;verticalAlign=middle;resizable=0;points=[];" vertex="1" connectable="0" parent="w7cFsFUDr6lKlFR0li6j-127">
          <mxGeometry x="-0.0783" y="-1" relative="1" as="geometry">
            <mxPoint as="offset" />
          </mxGeometry>
        </mxCell>
        <mxCell id="w7cFsFUDr6lKlFR0li6j-85" value="correctAnswer&lt;div&gt;in row_2&lt;/div&gt;" style="strokeWidth=2;html=1;shape=mxgraph.flowchart.decision;whiteSpace=wrap;" vertex="1" parent="1">
          <mxGeometry x="390" y="1140" width="100" height="100" as="geometry" />
        </mxCell>
        <mxCell id="w7cFsFUDr6lKlFR0li6j-131" style="edgeStyle=orthogonalEdgeStyle;rounded=0;orthogonalLoop=1;jettySize=auto;html=1;exitX=0;exitY=0.5;exitDx=0;exitDy=0;" edge="1" parent="1" source="w7cFsFUDr6lKlFR0li6j-91">
          <mxGeometry relative="1" as="geometry">
            <mxPoint x="30" y="1200" as="targetPoint" />
          </mxGeometry>
        </mxCell>
        <mxCell id="w7cFsFUDr6lKlFR0li6j-91" value="output&lt;div&gt;&quot;You answered&amp;nbsp;&lt;/div&gt;&lt;div&gt;correctly that&#39;s $400.&quot;&lt;br&gt;&lt;/div&gt;" style="shape=parallelogram;html=1;strokeWidth=2;perimeter=parallelogramPerimeter;whiteSpace=wrap;rounded=1;arcSize=12;size=0.23;" vertex="1" parent="1">
          <mxGeometry x="110" y="1140" width="210" height="120" as="geometry" />
        </mxCell>
        <mxCell id="w7cFsFUDr6lKlFR0li6j-94" style="edgeStyle=orthogonalEdgeStyle;rounded=0;orthogonalLoop=1;jettySize=auto;html=1;exitX=0;exitY=0.5;exitDx=0;exitDy=0;exitPerimeter=0;entryX=0.919;entryY=0.425;entryDx=0;entryDy=0;entryPerimeter=0;" edge="1" parent="1" source="w7cFsFUDr6lKlFR0li6j-79" target="w7cFsFUDr6lKlFR0li6j-80">
          <mxGeometry relative="1" as="geometry" />
        </mxCell>
        <mxCell id="w7cFsFUDr6lKlFR0li6j-95" value="Yes" style="edgeLabel;html=1;align=center;verticalAlign=middle;resizable=0;points=[];" vertex="1" connectable="0" parent="w7cFsFUDr6lKlFR0li6j-94">
          <mxGeometry x="0.1024" y="1" relative="1" as="geometry">
            <mxPoint x="2" y="-2" as="offset" />
          </mxGeometry>
        </mxCell>
        <mxCell id="w7cFsFUDr6lKlFR0li6j-99" style="edgeStyle=orthogonalEdgeStyle;rounded=0;orthogonalLoop=1;jettySize=auto;html=1;exitX=0.5;exitY=1;exitDx=0;exitDy=0;exitPerimeter=0;" edge="1" parent="1" source="w7cFsFUDr6lKlFR0li6j-1" target="w7cFsFUDr6lKlFR0li6j-1">
          <mxGeometry relative="1" as="geometry" />
        </mxCell>
        <mxCell id="w7cFsFUDr6lKlFR0li6j-113" style="edgeStyle=orthogonalEdgeStyle;rounded=0;orthogonalLoop=1;jettySize=auto;html=1;exitX=0;exitY=0.5;exitDx=0;exitDy=0;exitPerimeter=0;" edge="1" parent="1" source="w7cFsFUDr6lKlFR0li6j-100" target="w7cFsFUDr6lKlFR0li6j-103">
          <mxGeometry relative="1" as="geometry" />
        </mxCell>
        <mxCell id="w7cFsFUDr6lKlFR0li6j-117" value="Yes" style="edgeLabel;html=1;align=center;verticalAlign=middle;resizable=0;points=[];" vertex="1" connectable="0" parent="w7cFsFUDr6lKlFR0li6j-113">
          <mxGeometry x="-0.2369" y="1" relative="1" as="geometry">
            <mxPoint as="offset" />
          </mxGeometry>
        </mxCell>
        <mxCell id="w7cFsFUDr6lKlFR0li6j-100" value="correctAnswer&lt;div&gt;in row_3&lt;/div&gt;" style="strokeWidth=2;html=1;shape=mxgraph.flowchart.decision;whiteSpace=wrap;" vertex="1" parent="1">
          <mxGeometry x="390" y="1260" width="100" height="100" as="geometry" />
        </mxCell>
        <mxCell id="w7cFsFUDr6lKlFR0li6j-108" style="edgeStyle=orthogonalEdgeStyle;rounded=0;orthogonalLoop=1;jettySize=auto;html=1;exitX=0.5;exitY=1;exitDx=0;exitDy=0;exitPerimeter=0;" edge="1" parent="1" source="w7cFsFUDr6lKlFR0li6j-101" target="w7cFsFUDr6lKlFR0li6j-102">
          <mxGeometry relative="1" as="geometry" />
        </mxCell>
        <mxCell id="w7cFsFUDr6lKlFR0li6j-112" value="No" style="edgeLabel;html=1;align=center;verticalAlign=middle;resizable=0;points=[];" vertex="1" connectable="0" parent="w7cFsFUDr6lKlFR0li6j-108">
          <mxGeometry x="0.28" relative="1" as="geometry">
            <mxPoint as="offset" />
          </mxGeometry>
        </mxCell>
        <mxCell id="w7cFsFUDr6lKlFR0li6j-114" style="edgeStyle=orthogonalEdgeStyle;rounded=0;orthogonalLoop=1;jettySize=auto;html=1;exitX=0;exitY=0.5;exitDx=0;exitDy=0;exitPerimeter=0;" edge="1" parent="1" source="w7cFsFUDr6lKlFR0li6j-101" target="w7cFsFUDr6lKlFR0li6j-104">
          <mxGeometry relative="1" as="geometry" />
        </mxCell>
        <mxCell id="w7cFsFUDr6lKlFR0li6j-118" value="Yes" style="edgeLabel;html=1;align=center;verticalAlign=middle;resizable=0;points=[];" vertex="1" connectable="0" parent="w7cFsFUDr6lKlFR0li6j-114">
          <mxGeometry x="-0.1715" relative="1" as="geometry">
            <mxPoint as="offset" />
          </mxGeometry>
        </mxCell>
        <mxCell id="w7cFsFUDr6lKlFR0li6j-101" value="correctAnswer&lt;div&gt;in row_4&lt;/div&gt;" style="strokeWidth=2;html=1;shape=mxgraph.flowchart.decision;whiteSpace=wrap;" vertex="1" parent="1">
          <mxGeometry x="390" y="1410" width="100" height="100" as="geometry" />
        </mxCell>
        <mxCell id="w7cFsFUDr6lKlFR0li6j-102" value="correctAnswer&lt;div&gt;in row_5&lt;/div&gt;" style="strokeWidth=2;html=1;shape=mxgraph.flowchart.decision;whiteSpace=wrap;" vertex="1" parent="1">
          <mxGeometry x="390" y="1560" width="100" height="100" as="geometry" />
        </mxCell>
        <mxCell id="w7cFsFUDr6lKlFR0li6j-133" style="edgeStyle=orthogonalEdgeStyle;rounded=0;orthogonalLoop=1;jettySize=auto;html=1;exitX=0;exitY=0.5;exitDx=0;exitDy=0;" edge="1" parent="1" source="w7cFsFUDr6lKlFR0li6j-103">
          <mxGeometry relative="1" as="geometry">
            <mxPoint x="30" y="1380" as="targetPoint" />
          </mxGeometry>
        </mxCell>
        <mxCell id="w7cFsFUDr6lKlFR0li6j-103" value="output&lt;div&gt;&quot;You answered&amp;nbsp;&lt;/div&gt;&lt;div&gt;correctly that&#39;s $600.&quot;&lt;br&gt;&lt;/div&gt;" style="shape=parallelogram;html=1;strokeWidth=2;perimeter=parallelogramPerimeter;whiteSpace=wrap;rounded=1;arcSize=12;size=0.23;" vertex="1" parent="1">
          <mxGeometry x="80" y="1320" width="210" height="120" as="geometry" />
        </mxCell>
        <mxCell id="w7cFsFUDr6lKlFR0li6j-134" style="edgeStyle=orthogonalEdgeStyle;rounded=0;orthogonalLoop=1;jettySize=auto;html=1;exitX=0;exitY=0.5;exitDx=0;exitDy=0;" edge="1" parent="1" source="w7cFsFUDr6lKlFR0li6j-104">
          <mxGeometry relative="1" as="geometry">
            <mxPoint x="30" y="1530" as="targetPoint" />
          </mxGeometry>
        </mxCell>
        <mxCell id="w7cFsFUDr6lKlFR0li6j-104" value="output&lt;div&gt;&quot;You answered&amp;nbsp;&lt;/div&gt;&lt;div&gt;correctly that&#39;s $800.&quot;&lt;br&gt;&lt;/div&gt;" style="shape=parallelogram;html=1;strokeWidth=2;perimeter=parallelogramPerimeter;whiteSpace=wrap;rounded=1;arcSize=12;size=0.23;" vertex="1" parent="1">
          <mxGeometry x="70" y="1470" width="210" height="120" as="geometry" />
        </mxCell>
        <mxCell id="w7cFsFUDr6lKlFR0li6j-135" style="edgeStyle=orthogonalEdgeStyle;rounded=0;orthogonalLoop=1;jettySize=auto;html=1;exitX=0;exitY=0.5;exitDx=0;exitDy=0;" edge="1" parent="1" source="w7cFsFUDr6lKlFR0li6j-105">
          <mxGeometry relative="1" as="geometry">
            <mxPoint x="30" y="1700" as="targetPoint" />
          </mxGeometry>
        </mxCell>
        <mxCell id="w7cFsFUDr6lKlFR0li6j-105" value="output&lt;div&gt;&quot;You answered&amp;nbsp;&lt;/div&gt;&lt;div&gt;correctly that&#39;s $1000.&quot;&lt;br&gt;&lt;/div&gt;" style="shape=parallelogram;html=1;strokeWidth=2;perimeter=parallelogramPerimeter;whiteSpace=wrap;rounded=1;arcSize=12;size=0.23;" vertex="1" parent="1">
          <mxGeometry x="50" y="1640" width="210" height="120" as="geometry" />
        </mxCell>
        <mxCell id="w7cFsFUDr6lKlFR0li6j-107" style="edgeStyle=orthogonalEdgeStyle;rounded=0;orthogonalLoop=1;jettySize=auto;html=1;exitX=0.5;exitY=1;exitDx=0;exitDy=0;exitPerimeter=0;entryX=0.5;entryY=0;entryDx=0;entryDy=0;entryPerimeter=0;" edge="1" parent="1" source="w7cFsFUDr6lKlFR0li6j-100" target="w7cFsFUDr6lKlFR0li6j-101">
          <mxGeometry relative="1" as="geometry" />
        </mxCell>
        <mxCell id="w7cFsFUDr6lKlFR0li6j-111" value="No" style="edgeLabel;html=1;align=center;verticalAlign=middle;resizable=0;points=[];" vertex="1" connectable="0" parent="w7cFsFUDr6lKlFR0li6j-107">
          <mxGeometry x="-0.2" y="2" relative="1" as="geometry">
            <mxPoint as="offset" />
          </mxGeometry>
        </mxCell>
        <mxCell id="w7cFsFUDr6lKlFR0li6j-115" style="edgeStyle=orthogonalEdgeStyle;rounded=0;orthogonalLoop=1;jettySize=auto;html=1;exitX=0;exitY=0.5;exitDx=0;exitDy=0;exitPerimeter=0;entryX=0.962;entryY=0.225;entryDx=0;entryDy=0;entryPerimeter=0;" edge="1" parent="1" source="w7cFsFUDr6lKlFR0li6j-102" target="w7cFsFUDr6lKlFR0li6j-105">
          <mxGeometry relative="1" as="geometry" />
        </mxCell>
        <mxCell id="w7cFsFUDr6lKlFR0li6j-119" value="Yes" style="edgeLabel;html=1;align=center;verticalAlign=middle;resizable=0;points=[];" vertex="1" connectable="0" parent="w7cFsFUDr6lKlFR0li6j-115">
          <mxGeometry x="0.0208" y="-1" relative="1" as="geometry">
            <mxPoint as="offset" />
          </mxGeometry>
        </mxCell>
        <mxCell id="w7cFsFUDr6lKlFR0li6j-125" style="edgeStyle=orthogonalEdgeStyle;rounded=0;orthogonalLoop=1;jettySize=auto;html=1;exitX=0.5;exitY=1;exitDx=0;exitDy=0;exitPerimeter=0;entryX=0.5;entryY=0;entryDx=0;entryDy=0;entryPerimeter=0;" edge="1" parent="1" source="w7cFsFUDr6lKlFR0li6j-85" target="w7cFsFUDr6lKlFR0li6j-100">
          <mxGeometry relative="1" as="geometry" />
        </mxCell>
        <mxCell id="w7cFsFUDr6lKlFR0li6j-126" value="No" style="edgeLabel;html=1;align=center;verticalAlign=middle;resizable=0;points=[];" vertex="1" connectable="0" parent="w7cFsFUDr6lKlFR0li6j-125">
          <mxGeometry x="-0.4" y="-3" relative="1" as="geometry">
            <mxPoint as="offset" />
          </mxGeometry>
        </mxCell>
        <mxCell id="w7cFsFUDr6lKlFR0li6j-129" value="increment numberOfQuestions&lt;div&gt;+ 1&lt;/div&gt;" style="rounded=1;whiteSpace=wrap;html=1;absoluteArcSize=1;arcSize=14;strokeWidth=2;" vertex="1" parent="1">
          <mxGeometry x="360" y="1770" width="160" height="100" as="geometry" />
        </mxCell>
        <mxCell id="w7cFsFUDr6lKlFR0li6j-139" style="edgeStyle=orthogonalEdgeStyle;rounded=0;orthogonalLoop=1;jettySize=auto;html=1;exitX=1;exitY=0.5;exitDx=0;exitDy=0;exitPerimeter=0;" edge="1" parent="1" source="w7cFsFUDr6lKlFR0li6j-136">
          <mxGeometry relative="1" as="geometry">
            <mxPoint x="530" y="370" as="targetPoint" />
            <Array as="points">
              <mxPoint x="800" y="1980" />
            </Array>
          </mxGeometry>
        </mxCell>
        <mxCell id="w7cFsFUDr6lKlFR0li6j-140" value="Yes" style="edgeLabel;html=1;align=center;verticalAlign=middle;resizable=0;points=[];" vertex="1" connectable="0" parent="w7cFsFUDr6lKlFR0li6j-139">
          <mxGeometry x="-0.2281" y="-1" relative="1" as="geometry">
            <mxPoint as="offset" />
          </mxGeometry>
        </mxCell>
        <mxCell id="w7cFsFUDr6lKlFR0li6j-142" style="edgeStyle=orthogonalEdgeStyle;rounded=0;orthogonalLoop=1;jettySize=auto;html=1;exitX=0.5;exitY=1;exitDx=0;exitDy=0;exitPerimeter=0;entryX=0.5;entryY=0;entryDx=0;entryDy=0;" edge="1" parent="1" source="w7cFsFUDr6lKlFR0li6j-136" target="w7cFsFUDr6lKlFR0li6j-141">
          <mxGeometry relative="1" as="geometry" />
        </mxCell>
        <mxCell id="w7cFsFUDr6lKlFR0li6j-143" value="No" style="edgeLabel;html=1;align=center;verticalAlign=middle;resizable=0;points=[];" vertex="1" connectable="0" parent="w7cFsFUDr6lKlFR0li6j-142">
          <mxGeometry x="-0.2" y="2" relative="1" as="geometry">
            <mxPoint as="offset" />
          </mxGeometry>
        </mxCell>
        <mxCell id="w7cFsFUDr6lKlFR0li6j-136" value="numberOfQuestions&lt;div&gt;!= 61&lt;/div&gt;" style="strokeWidth=2;html=1;shape=mxgraph.flowchart.decision;whiteSpace=wrap;" vertex="1" parent="1">
          <mxGeometry x="375" y="1920" width="130" height="120" as="geometry" />
        </mxCell>
        <mxCell id="w7cFsFUDr6lKlFR0li6j-138" style="edgeStyle=orthogonalEdgeStyle;rounded=0;orthogonalLoop=1;jettySize=auto;html=1;exitX=0.5;exitY=1;exitDx=0;exitDy=0;entryX=0.5;entryY=0;entryDx=0;entryDy=0;entryPerimeter=0;" edge="1" parent="1" source="w7cFsFUDr6lKlFR0li6j-129" target="w7cFsFUDr6lKlFR0li6j-136">
          <mxGeometry relative="1" as="geometry" />
        </mxCell>
        <mxCell id="w7cFsFUDr6lKlFR0li6j-141" value="output&lt;div&gt;&quot;End of program.&quot;&lt;/div&gt;" style="shape=parallelogram;html=1;strokeWidth=2;perimeter=parallelogramPerimeter;whiteSpace=wrap;rounded=1;arcSize=12;size=0.23;" vertex="1" parent="1">
          <mxGeometry x="370" y="2100" width="140" height="80" as="geometry" />
        </mxCell>
        <mxCell id="w7cFsFUDr6lKlFR0li6j-144" style="edgeStyle=orthogonalEdgeStyle;rounded=0;orthogonalLoop=1;jettySize=auto;html=1;exitX=0.5;exitY=1;exitDx=0;exitDy=0;entryX=0.5;entryY=0;entryDx=0;entryDy=0;entryPerimeter=0;" edge="1" parent="1" source="w7cFsFUDr6lKlFR0li6j-141" target="w7cFsFUDr6lKlFR0li6j-1">
          <mxGeometry relative="1" as="geometry" />
        </mxCell>
      </root>
    </mxGraphModel>
  </diagram>
</mxfile>
